<?xml version="1.0" encoding="utf-8"?>
<!-- Generator: Adobe Illustrator 24.3.0, SVG Export Plug-In . SVG Version: 6.00 Build 0)  -->
<svg version="1.1" id="Calque_1" xmlns="http://www.w3.org/2000/svg" xmlns:xlink="http://www.w3.org/1999/xlink" x="0px" y="0px"
	 viewBox="0 0 425.2 425.2" style="enable-background:new 0 0 425.2 425.2;" xml:space="preserve">
<style type="text/css">
	.st0{fill:#FFFFFF;}
	.st1{fill:#F29100;}
</style>
<g>
	<path class="st0" d="M147.5,211.08c0.08,0.21,0.09,0.44,0.03,0.71s-0.09,0.5-0.09,0.71c0,0.66,0.01,1.3,0.03,1.93
		c0.02,0.63,0.01,1.26-0.03,1.87c0,0.29,0.01,0.55,0.03,0.8s0.03,0.49,0.03,0.74c0.08,0.25,0.06,0.45-0.06,0.61
		c-0.08,0.16-0.1,0.31-0.06,0.43s0.04,0.29,0,0.49c-0.04,0.49-0.13,0.97-0.28,1.44s-0.3,0.93-0.46,1.38c-0.16,0-0.3,0.02-0.4,0.06
		c-0.1,0.04-0.17,0.08-0.21,0.12c-0.04,0.04,0,0.08,0.12,0.12c0.2,0.08,0.28,0.19,0.21,0.34s-0.15,0.3-0.28,0.46
		c-0.08,0.16-0.2,0.32-0.34,0.46s-0.21,0.32-0.21,0.52c-0.21,0.21-0.41,0.43-0.61,0.68c-0.21,0.25-0.41,0.47-0.61,0.68
		c-0.7,0.78-1.51,1.35-2.46,1.72c-0.25,0.12-0.47,0.26-0.67,0.4c-0.21,0.14-0.45,0.24-0.74,0.28c-0.25,0-0.45,0.06-0.61,0.18
		c-0.16,0.08-0.3,0.13-0.4,0.15c-0.1,0.02-0.26,0.03-0.46,0.03c-0.53,0.08-1.03,0.14-1.5,0.18s-0.95,0.08-1.44,0.12
		c-0.61,0-1.23-0.05-1.84-0.15c-0.61-0.1-1.23-0.21-1.84-0.34c-0.53-0.12-1-0.31-1.41-0.55c-0.16-0.08-0.29-0.11-0.37-0.09
		s-0.21-0.03-0.37-0.15c-0.08-0.08-0.17-0.16-0.28-0.25c-0.1-0.08-0.21-0.16-0.34-0.25c-0.21-0.12-0.43-0.24-0.67-0.34
		c-0.25-0.1-0.39-0.28-0.43-0.52c-0.21-0.08-0.38-0.21-0.52-0.37c-0.14-0.16-0.3-0.33-0.46-0.49c-0.16-0.12-0.29-0.27-0.37-0.43
		c-0.08-0.16-0.21-0.29-0.37-0.37c-0.21-0.16-0.38-0.41-0.52-0.74s-0.28-0.59-0.4-0.8c-0.08-0.08-0.17-0.18-0.28-0.31
		c-0.1-0.12-0.11-0.25-0.03-0.37c0.08-0.16,0.08-0.25,0-0.28c-0.08-0.02-0.16-0.09-0.25-0.21c0-0.25-0.03-0.49-0.09-0.74
		s-0.13-0.51-0.21-0.8c-0.08-0.25-0.12-0.46-0.12-0.64s0-0.4,0-0.64c-0.04-0.25-0.05-0.5-0.03-0.77c0.02-0.27,0.01-0.52-0.03-0.77
		c-0.04-0.29-0.07-0.54-0.09-0.77c-0.02-0.22-0.01-0.48,0.03-0.77c0-0.33-0.03-0.67-0.09-1.01c-0.06-0.35-0.05-0.67,0.03-0.95
		c0.08-0.41,0.08-0.83,0-1.26s-0.02-0.83,0.18-1.2c0.08-0.12,0.11-0.21,0.09-0.25c-0.02-0.04-0.07-0.1-0.15-0.18
		c-0.08-0.08-0.11-0.2-0.09-0.37c0.02-0.16,0.03-0.29,0.03-0.37c0-0.33-0.01-0.68-0.03-1.04s-0.01-0.72,0.03-1.04
		c0.04-0.2,0.05-0.41,0.03-0.61c-0.02-0.2-0.03-0.41-0.03-0.61c0.04-0.33,0.04-0.63,0-0.92s-0.06-0.59-0.06-0.92
		c0.04-0.57,0.03-1.17-0.03-1.78s-0.01-1.21,0.15-1.78c0.04-0.2,0.03-0.34-0.03-0.4s-0.07-0.19-0.03-0.4c0.04-0.33,0.04-0.63,0-0.92
		s-0.06-0.57-0.06-0.86c0-0.25,0.02-0.49,0.06-0.74s0.06-0.49,0.06-0.74c0-0.33-0.01-0.67-0.03-1.01c-0.02-0.35-0.05-0.68-0.09-1.01
		c0-0.29,0.03-0.57,0.09-0.86s0.05-0.57-0.03-0.86c-0.08-0.25-0.09-0.51-0.03-0.8c0.06-0.29,0.11-0.57,0.15-0.86
		c0.04-0.25,0.04-0.51,0-0.8c0.16-0.25,0.25-0.47,0.25-0.68c0.08-0.33,0.14-0.59,0.18-0.8c0.04-0.16,0.1-0.3,0.18-0.4
		c0.08-0.1,0.16-0.25,0.25-0.46c0.08-0.21,0.18-0.42,0.31-0.65c0.12-0.22,0.25-0.46,0.37-0.71c0.08-0.2,0.21-0.41,0.4-0.61
		c0.18-0.2,0.36-0.41,0.52-0.61c0.33-0.41,0.7-0.77,1.11-1.08c0.41-0.31,0.84-0.62,1.29-0.95c0.2-0.12,0.42-0.22,0.64-0.31
		c0.22-0.08,0.44-0.18,0.65-0.31c0.2-0.12,0.42-0.2,0.64-0.25c0.22-0.04,0.46-0.1,0.71-0.18c0.08,0,0.3-0.06,0.64-0.18
		s0.54-0.12,0.58,0c0.08-0.04,0.15-0.08,0.21-0.12c0.06-0.04,0.13-0.08,0.21-0.12h1.29c0.45-0.04,0.92-0.05,1.41-0.03
		s0.96,0.05,1.41,0.09c0.16,0.04,0.35,0.09,0.55,0.15s0.37,0.07,0.49,0.03c0.2-0.08,0.46-0.05,0.77,0.09s0.58,0.24,0.83,0.28
		c0.33,0.29,0.71,0.47,1.14,0.55s0.79,0.31,1.07,0.68c0.08,0.12,0.19,0.21,0.34,0.25c0.14,0.04,0.28,0.16,0.4,0.37
		c0.2,0.21,0.41,0.37,0.61,0.49s0.37,0.31,0.49,0.55c0.12,0.21,0.27,0.36,0.43,0.46c0.16,0.1,0.29,0.28,0.37,0.52
		c0.08,0.21,0.2,0.41,0.37,0.61c0.16,0.21,0.31,0.41,0.43,0.61c0.45,1.02,0.74,2.05,0.86,3.07c0.04,0.25,0.1,0.53,0.18,0.86
		c0.08,0.33,0.08,0.59,0,0.8c-0.04,0.21-0.04,0.41,0,0.61c0.04,0.21,0.04,0.41,0,0.61c-0.08,0.21-0.04,0.39,0.12,0.55
		c-0.08,0.08-0.12,0.17-0.12,0.28s0,0.21,0,0.34c0.04,0.12,0.04,0.24,0,0.34c-0.04,0.1-0.04,0.24,0,0.4c0,0.21,0.01,0.42,0.03,0.64
		c0.02,0.23,0.03,0.44,0.03,0.64c0,0.33-0.02,0.61-0.06,0.86s-0.04,0.51,0,0.8c0.08,0.29,0.09,0.56,0.03,0.83s-0.07,0.52-0.03,0.77
		c0.08,0.57,0.09,1.15,0.03,1.72s-0.07,1.15-0.03,1.72c0.04,0.33,0.05,0.61,0.03,0.86s-0.03,0.53-0.03,0.86
		c0,0.41-0.04,0.72-0.12,0.92c0.08,0.08,0.12,0.23,0.12,0.43c0,0.21,0.03,0.44,0.09,0.71s0.05,0.5-0.03,0.71
		c-0.04,0.12-0.08,0.3-0.12,0.52c-0.04,0.23-0.02,0.4,0.06,0.52c0.08,0.08,0.09,0.15,0.03,0.22c-0.06,0.06-0.09,0.15-0.09,0.28
		C147.38,210.61,147.42,210.84,147.5,211.08z M139.4,208.75c-0.04-0.21-0.08-0.41-0.12-0.61s-0.02-0.41,0.06-0.61
		c0.12-0.37,0.13-0.82,0.03-1.35s-0.13-1.02-0.09-1.47c0-0.57,0-1.13,0-1.66s0.02-1.08,0.06-1.66c0-0.25-0.03-0.51-0.09-0.8
		c-0.06-0.29-0.05-0.55,0.03-0.8c0.08-0.29,0.09-0.55,0.03-0.8s-0.07-0.53-0.03-0.86c0.04-0.61,0.05-1.23,0.03-1.84
		s-0.03-1.23-0.03-1.84c0-0.45-0.02-0.99-0.06-1.63c-0.04-0.63-0.22-1.16-0.55-1.57s-0.75-0.72-1.26-0.92s-1.03-0.27-1.57-0.18
		c-0.25,0-0.48,0.04-0.71,0.12c-0.23,0.08-0.46,0.16-0.71,0.25c-0.29,0.08-0.53,0.28-0.74,0.58c-0.21,0.31-0.39,0.56-0.55,0.77
		c0.04,0.29,0.01,0.54-0.09,0.77c-0.1,0.23-0.17,0.46-0.21,0.71c0,0.25,0.03,0.47,0.09,0.68s0.05,0.43-0.03,0.67
		c-0.08,0.29-0.1,0.57-0.06,0.86c0.04,0.29,0.06,0.59,0.06,0.92c0.04,0.66,0.04,1.31,0,1.96c0,0.53,0.01,1.05,0.03,1.57
		c0.02,0.51,0.01,1.04-0.03,1.57c-0.04,0.25-0.03,0.49,0.03,0.74s0.07,0.49,0.03,0.74c-0.08,0.33-0.11,0.62-0.09,0.89
		s0.03,0.56,0.03,0.89c0,0.29,0,0.57,0,0.86s-0.04,0.57-0.12,0.86c0.08,0.33,0.12,0.66,0.12,0.98c0,0.33,0,0.66,0,0.98
		c-0.04,0.66-0.05,1.31-0.03,1.96c0.02,0.66,0.03,1.31,0.03,1.96c0,0.29,0,0.56,0,0.83s-0.02,0.54-0.06,0.83
		c0,0.25,0.03,0.49,0.09,0.74s0.05,0.49-0.03,0.74c-0.08,0.49-0.1,1.01-0.06,1.57c0.04,0.55,0.12,1.07,0.25,1.57
		c0.08,0.45,0.21,0.87,0.37,1.26c0.16,0.39,0.47,0.71,0.92,0.95c0.37,0.25,0.74,0.35,1.11,0.31c0.29-0.08,0.52-0.06,0.71,0.06
		s0.42,0.1,0.71-0.06c0.12-0.08,0.35-0.16,0.68-0.25c0.41-0.12,0.72-0.31,0.92-0.55c0.25-0.33,0.41-0.63,0.49-0.92
		s0.16-0.63,0.25-1.04c0.04-0.16,0.1-0.31,0.18-0.43c0.08-0.12,0.08-0.27,0-0.43c-0.08-0.16-0.12-0.33-0.12-0.49s0-0.35,0-0.55
		c0.08-0.41,0.06-0.76-0.06-1.04c0.12-0.2,0.15-0.42,0.09-0.64s-0.05-0.44,0.03-0.64c0.08-0.12,0.11-0.27,0.09-0.43
		c-0.02-0.16-0.05-0.33-0.09-0.49c-0.08-0.2-0.11-0.39-0.09-0.55s0.05-0.35,0.09-0.55c0.04-0.37,0.03-0.74-0.03-1.11
		s-0.07-0.74-0.03-1.11c0.04-0.2,0.07-0.41,0.09-0.61C139.39,209.16,139.4,208.95,139.4,208.75z"/>
	<path class="st0" d="M174.89,225.27c0,0.33,0.03,0.77,0.09,1.32s-0.07,0.95-0.4,1.2c-0.25,0.16-0.44,0.21-0.58,0.15
		c-0.14-0.06-0.32-0.05-0.52,0.03c-0.12,0-0.24,0.02-0.34,0.06c-0.1,0.04-0.21,0.06-0.34,0.06c-0.12,0-0.23-0.03-0.31-0.09
		s-0.18-0.07-0.31-0.03c-0.49,0.08-0.99,0.1-1.5,0.06c-0.51-0.04-1.01-0.04-1.5,0c-0.25,0.04-0.46-0.01-0.64-0.15
		s-0.36-0.3-0.52-0.46c0-0.08,0.05-0.2,0.15-0.37c0.1-0.16,0.03-0.18-0.21-0.06c-0.08,0.04-0.17-0.07-0.28-0.34
		c-0.1-0.27-0.21-0.57-0.34-0.92c-0.12-0.35-0.24-0.7-0.34-1.04c-0.1-0.35-0.17-0.56-0.21-0.64c-0.16-0.21-0.27-0.41-0.31-0.61
		s-0.1-0.43-0.18-0.68c-0.08-0.25-0.18-0.47-0.31-0.67s-0.21-0.43-0.25-0.68c-0.08-0.49-0.24-0.98-0.46-1.47
		c-0.23-0.49-0.42-0.96-0.58-1.41c-0.08-0.21-0.15-0.42-0.21-0.65c-0.06-0.22-0.15-0.44-0.28-0.64c-0.08-0.16-0.12-0.35-0.12-0.55
		c-0.08-0.2-0.21-0.47-0.37-0.8c-0.21-0.61-0.4-1.24-0.58-1.87c-0.18-0.63-0.4-1.24-0.64-1.81c0.04-0.04,0.09-0.04,0.15,0
		s0.11,0.04,0.15,0c0-0.12-0.12-0.22-0.37-0.31c-0.12-0.04-0.2-0.11-0.21-0.22c-0.02-0.1-0.05-0.21-0.09-0.34
		c-0.08-0.29-0.21-0.57-0.37-0.86c-0.16-0.29-0.25-0.57-0.25-0.86c-0.04-0.2-0.1-0.38-0.18-0.52c-0.08-0.14-0.16-0.32-0.25-0.52
		c-0.08-0.2-0.04-0.33,0.12-0.37c0.12-0.04,0.11-0.09-0.03-0.15s-0.2-0.01-0.15,0.15c-0.17-0.37-0.31-0.74-0.43-1.11
		s-0.29-0.76-0.49-1.17c-0.08-0.12-0.14-0.31-0.18-0.55c-0.04-0.25-0.1-0.39-0.18-0.43c-0.21-0.12-0.31-0.11-0.31,0.03
		s-0.02,0.28-0.06,0.4c-0.04,0.08-0.08,0.13-0.12,0.15c-0.04,0.02-0.08,0.07-0.12,0.15c0,0.12,0.03,0.21,0.09,0.25
		s0.09,0.12,0.09,0.25c-0.04,0.33-0.05,0.63-0.03,0.92s0.03,0.59,0.03,0.92c0,0.12,0.01,0.31,0.03,0.55
		c0.02,0.25,0.03,0.5,0.03,0.77s-0.02,0.5-0.06,0.71s-0.12,0.33-0.25,0.37c0,0.08,0.03,0.13,0.09,0.15s0.13,0.07,0.21,0.15
		c-0.08,0.25-0.12,0.45-0.12,0.61c0,0.21,0.02,0.43,0.06,0.67c0.04,0.25,0.06,0.47,0.06,0.68c-0.08,0.53-0.11,1.04-0.09,1.54
		s0.03,1.02,0.03,1.6c0,1.15,0.01,2.26,0.03,3.35c0.02,1.08,0.03,2.22,0.03,3.41c0,0.29-0.02,0.55-0.06,0.8s-0.04,0.51,0,0.8v1.78
		c0,0.61-0.06,1.19-0.18,1.72c-0.29,0.16-0.59,0.27-0.92,0.31s-0.66,0.06-0.98,0.06c-0.29,0-0.56-0.01-0.83-0.03
		s-0.54,0.01-0.83,0.09c-0.08,0-0.15-0.03-0.21-0.09c-0.06-0.06-0.13-0.09-0.21-0.09c-0.08-0.04-0.17-0.02-0.28,0.06
		c-0.1,0.08-0.19,0.12-0.28,0.12c-0.12,0-0.21-0.03-0.28-0.09c-0.06-0.06-0.15-0.05-0.28,0.03c-0.16,0.08-0.28,0.09-0.34,0.03
		s-0.17-0.09-0.34-0.09c-0.37,0-0.61-0.02-0.74-0.06c-0.12-0.04-0.33-0.2-0.61-0.49c-0.21-0.25-0.27-0.64-0.18-1.2
		c0.08-0.55,0.1-0.99,0.06-1.32c0-0.57-0.01-1.14-0.03-1.69s-0.03-1.12-0.03-1.69c0-0.33,0.01-0.63,0.03-0.92s0.03-0.59,0.03-0.92
		c-0.04-0.16-0.06-0.32-0.06-0.46s-0.02-0.28-0.06-0.4c0.08-0.12,0.12-0.25,0.12-0.37s0.02-0.25,0.06-0.37
		c0.04-0.65,0.03-1.29-0.03-1.9s-0.09-1.23-0.09-1.84c0-0.33,0.01-0.61,0.03-0.86s0.01-0.51-0.03-0.8c-0.04-0.29-0.04-0.54,0-0.77
		c0.04-0.22,0.06-0.48,0.06-0.77c0-0.16-0.02-0.29-0.06-0.37s-0.04-0.21,0-0.37c0.04-0.16,0.06-0.32,0.06-0.46s0.02-0.32,0.06-0.52
		c0-0.25-0.04-0.56-0.12-0.95s-0.06-0.69,0.06-0.89s0.15-0.46,0.09-0.77s-0.11-0.56-0.15-0.77c-0.04-0.33-0.05-0.64-0.03-0.95
		s0.03-0.62,0.03-0.95c0-0.29-0.01-0.59-0.03-0.92s0.01-0.63,0.09-0.92c0.04-0.16,0.07-0.25,0.09-0.28
		c0.02-0.02-0.01-0.09-0.09-0.21c-0.08-0.08-0.07-0.18,0.03-0.31c0.1-0.12,0.11-0.25,0.03-0.37c-0.08-0.21-0.11-0.42-0.09-0.65
		c0.02-0.22,0.03-0.46,0.03-0.71c0.08-0.25,0.08-0.51,0-0.8c-0.04-0.2-0.04-0.38,0-0.52s0.06-0.32,0.06-0.52
		c0-0.53-0.05-1.11-0.15-1.72c-0.1-0.61-0.07-1.17,0.09-1.66c0.08-0.16,0.09-0.26,0.03-0.28s-0.09-0.11-0.09-0.28
		c0-0.12,0.01-0.24,0.03-0.34c0.02-0.1,0.03-0.21,0.03-0.34c0.04-0.25,0.05-0.48,0.03-0.71c-0.02-0.22-0.05-0.46-0.09-0.71
		c0-0.29,0.02-0.55,0.06-0.8s0.04-0.49,0-0.74c-0.08-0.33-0.1-0.65-0.06-0.98c0.04-0.33,0.08-0.65,0.12-0.98
		c0-0.53-0.02-1.03-0.06-1.5s-0.02-0.97,0.06-1.5c0-0.25-0.02-0.51-0.06-0.8c-0.04-0.29,0.02-0.53,0.18-0.74
		c0.08-0.12,0.28-0.24,0.58-0.34c0.31-0.1,0.52-0.11,0.65-0.03c0.2,0.08,0.38,0.08,0.52,0s0.32-0.08,0.52,0
		c0.33,0.08,0.61,0.1,0.86,0.06c0.25-0.04,0.53-0.06,0.86-0.06c0.29-0.04,0.55-0.04,0.8,0s0.51,0.06,0.8,0.06
		c0.12,0.04,0.22,0.03,0.31-0.03c0.08-0.06,0.2-0.07,0.37-0.03c0.12,0.04,0.25,0.09,0.4,0.15c0.14,0.06,0.3,0.09,0.46,0.09
		c0.08,0.12,0.11,0.25,0.09,0.37s-0.03,0.25-0.03,0.37c0.12,0.04,0.16,0.03,0.12-0.03c-0.04-0.06-0.02-0.11,0.06-0.15
		c0.16,0.08,0.25,0.19,0.28,0.34c0.02,0.14,0.05,0.3,0.09,0.46c0.08,0.21,0.15,0.41,0.21,0.61c0.06,0.21,0.13,0.41,0.21,0.61
		c0.12,0.33,0.28,0.69,0.46,1.07c0.18,0.39,0.28,0.75,0.28,1.07c0.16,0.41,0.32,0.81,0.46,1.2s0.3,0.81,0.46,1.26
		c0.08,0.21,0.15,0.43,0.21,0.67c0.06,0.25,0.13,0.47,0.21,0.68c0.08,0.29,0.12,0.45,0.12,0.49c0,0.04-0.1,0.1-0.31,0.18
		c0.08,0.25,0.21,0.39,0.37,0.43c0.16,0.04,0.29,0.16,0.37,0.37c0.08,0.12,0.12,0.24,0.12,0.34c0,0.1,0.04,0.21,0.12,0.34
		s0.11,0.21,0.09,0.28c-0.02,0.06,0.01,0.17,0.09,0.34c0.08,0.21,0.16,0.39,0.25,0.55c0.08,0.17,0.16,0.35,0.25,0.55
		c0.08,0.33,0.15,0.61,0.21,0.86c0.06,0.25,0.15,0.49,0.28,0.74c0.12,0.21,0.17,0.39,0.15,0.55s-0.01,0.35,0.03,0.55
		c0,0.08,0.02,0.1,0.06,0.06c0.04-0.04,0.08-0.06,0.12-0.06s0.08,0.08,0.12,0.25c0.04,0.16,0.08,0.25,0.12,0.25
		c0.12,0.45,0.25,0.87,0.37,1.26s0.27,0.81,0.43,1.26c0.04,0.08,0.09,0.14,0.15,0.18s0.09,0.1,0.09,0.18
		c-0.08,0.08-0.06,0.18,0.06,0.31c0.12,0.16,0.19,0.35,0.21,0.55c0.02,0.21,0.07,0.41,0.15,0.61s0.17,0.4,0.28,0.58
		c0.1,0.18,0.19,0.38,0.28,0.58c0,0.04,0.02,0.12,0.06,0.25c0.04,0.12,0.09,0.23,0.15,0.31s0.12,0.14,0.18,0.18s0.11-0.02,0.15-0.18
		c0.08-0.16,0.09-0.33,0.03-0.49s-0.07-0.35-0.03-0.55c0.08-0.45,0.1-0.92,0.06-1.41c-0.08-0.57-0.08-1.14,0-1.69s0.08-1.12,0-1.69
		s-0.04-1.04,0.12-1.41c0.04-0.08,0.03-0.12-0.03-0.12s-0.09-0.04-0.09-0.12c0.04-0.16,0.06-0.32,0.06-0.46s0-0.28,0-0.4
		c-0.04-0.29-0.04-0.55,0-0.8s0.04-0.49,0-0.74c0-0.33-0.01-0.65-0.03-0.98s-0.03-0.66-0.03-0.98c0-0.29,0-0.57,0-0.86
		s0.02-0.57,0.06-0.86c0.04-0.2,0.02-0.45-0.06-0.74c-0.08-0.29-0.08-0.53,0-0.74s0.09-0.42,0.03-0.64s-0.07-0.44-0.03-0.65
		c0.04-0.29,0.04-0.56,0-0.83s-0.04-0.54,0-0.83c0.04-0.21,0.08-0.46,0.12-0.77s0.02-0.56-0.06-0.77c-0.12-0.21-0.15-0.44-0.09-0.71
		s0.09-0.5,0.09-0.71c0-0.29,0.09-0.5,0.28-0.64c0.18-0.14,0.41-0.25,0.67-0.31c0.27-0.06,0.55-0.08,0.86-0.06s0.56,0.03,0.77,0.03
		c0.2,0,0.47-0.02,0.8-0.06s0.57-0.02,0.74,0.06c0.08,0.08,0.29,0.11,0.61,0.09c0.33-0.02,0.53-0.05,0.61-0.09
		c0.29-0.08,0.58-0.07,0.89,0.03s0.58,0.19,0.83,0.28c0.16,0.21,0.25,0.43,0.25,0.67c0,0.25,0,0.49,0,0.74
		c0,0.45,0.02,0.87,0.06,1.26s0.04,0.79,0,1.2c-0.04,0.21-0.07,0.43-0.09,0.68c-0.02,0.25,0.01,0.47,0.09,0.67
		c0.08,0.12,0.09,0.28,0.03,0.46c-0.06,0.18-0.07,0.36-0.03,0.52c0.08,0.37,0.08,0.73,0,1.08s-0.12,0.71-0.12,1.07
		c0,0.21,0.02,0.42,0.06,0.64c0.04,0.23,0.06,0.46,0.06,0.71c0,0.21-0.02,0.4-0.06,0.58s-0.06,0.38-0.06,0.58
		c0,0.41,0.02,0.81,0.06,1.2s0.06,0.79,0.06,1.2c-0.04,0.41-0.05,0.81-0.03,1.2s0.03,0.77,0.03,1.14v2.52
		c0,0.41-0.03,0.85-0.09,1.32s-0.03,0.89,0.09,1.26c-0.29,0.16-0.37,0.26-0.25,0.28s0.2,0.15,0.25,0.4c0,0.16-0.01,0.32-0.03,0.46
		s0.01,0.28,0.09,0.4c0.04,0.21,0.04,0.34,0,0.4s-0.06,0.17-0.06,0.34c-0.08,0.45-0.1,0.9-0.06,1.35c0.04,0.45,0.02,0.9-0.06,1.35
		c-0.04,0.57-0.02,1.13,0.06,1.66s0.1,1.08,0.06,1.66c-0.04,0.57-0.04,1.13,0,1.66s0.02,1.08-0.06,1.66
		c-0.04,0.29-0.02,0.56,0.06,0.83s0.1,0.56,0.06,0.89c-0.04,0.21-0.08,0.43-0.12,0.68s-0.02,0.47,0.06,0.67
		c0.08,0.25,0.08,0.5,0,0.77s-0.08,0.52,0,0.77c0.04,0.25,0.02,0.5-0.06,0.77s-0.04,0.5,0.12,0.71c-0.08,0.29-0.11,0.53-0.09,0.74
		s0.05,0.45,0.09,0.74c0.04,0.29,0.04,0.55,0,0.8C174.97,224.71,174.93,224.98,174.89,225.27z"/>
	<path class="st0" d="M141.35,262.85c-0.07,0.16-0.08,0.33-0.05,0.49s0.07,0.33,0.1,0.49c-0.1,0.43-0.13,0.87-0.1,1.33
		s0.07,0.9,0.1,1.33c0,0.26-0.06,0.44-0.17,0.54c-0.12,0.1-0.25,0.17-0.42,0.22s-0.35,0.07-0.56,0.07c-0.21,0-0.39,0-0.52,0
		c-0.43,0.07-0.85,0.08-1.28,0.05s-0.83-0.05-1.23-0.05c-0.1,0-0.17-0.02-0.22-0.05s-0.12-0.02-0.22,0.05
		c-0.1,0.03-0.26,0.05-0.49,0.05c-0.29,0.06-0.61,0.03-0.93-0.1c-0.17-0.07-0.34-0.05-0.52,0.05c-0.18,0.1-0.35,0.11-0.52,0.05
		c-0.16-0.07-0.34-0.11-0.54-0.12s-0.38,0.01-0.54,0.07c-0.39,0.07-0.83,0.07-1.3,0.02c-0.47-0.05-0.92-0.06-1.35-0.02
		c-0.26,0-0.5,0.02-0.71,0.05s-0.43,0.02-0.66-0.05c-0.1-0.03-0.21-0.04-0.32-0.02c-0.12,0.02-0.22,0.02-0.32,0.02
		c-0.17,0.03-0.31,0.02-0.44-0.02s-0.28-0.06-0.44-0.02c-0.2,0-0.4,0.02-0.61,0.07c-0.21,0.05-0.42,0.04-0.61-0.02
		c-0.23-0.07-0.41-0.07-0.54,0c-0.1-0.07-0.19-0.12-0.27-0.17c-0.08-0.05-0.17-0.11-0.27-0.17c-0.07-0.13-0.08-0.29-0.05-0.49
		c0.03-0.2,0.03-0.36,0-0.49c0-0.26-0.01-0.52-0.02-0.76c-0.02-0.25-0.03-0.5-0.03-0.76c0.03-1.24,0.03-2.51-0.02-3.81
		c-0.05-1.29-0.04-2.56,0.02-3.81c0.03-0.33,0.03-0.64,0-0.93c-0.03-0.29-0.02-0.61,0.05-0.93c0-0.16,0.01-0.29,0.02-0.39
		c0.02-0.1,0.01-0.21-0.02-0.34c-0.03-0.16-0.04-0.29-0.02-0.39c0.02-0.1,0.02-0.21,0.02-0.34c0.03-0.1,0.02-0.18-0.02-0.25
		c-0.05-0.06-0.06-0.16-0.03-0.29c0.03-0.16,0.04-0.33,0.03-0.49c-0.02-0.16-0.03-0.33-0.03-0.49c0-0.36,0.03-0.62,0.1-0.79
		c0-0.07-0.03-0.16-0.1-0.29v-0.74c0-0.36-0.01-0.7-0.02-1.01c-0.02-0.31-0.01-0.65,0.02-1.01c0-0.16,0.02-0.32,0.05-0.47
		c0.03-0.15,0.03-0.3,0-0.47c-0.03-0.16-0.06-0.34-0.07-0.54s0.01-0.38,0.07-0.54c0.03-0.1,0.03-0.24,0-0.42s-0.06-0.37-0.07-0.57
		c-0.02-0.2-0.02-0.38,0-0.54c0.02-0.16,0.07-0.26,0.17-0.29c0-0.1-0.03-0.16-0.1-0.17c-0.07-0.02-0.08-0.06-0.05-0.12
		c0-0.16,0.01-0.34,0.03-0.54s0.02-0.39,0.02-0.59c0-0.06-0.02-0.2-0.07-0.39c-0.05-0.2-0.04-0.34,0.02-0.44
		c0.07-0.07,0.11-0.11,0.12-0.15c0.02-0.03-0.01-0.1-0.07-0.2c-0.07-0.07-0.09-0.19-0.07-0.37s0.02-0.32,0.02-0.42
		c0-0.13,0.03-0.29,0.07-0.47c0.05-0.18,0.04-0.33-0.02-0.47c-0.03-0.06-0.07-0.15-0.1-0.25s0-0.16,0.1-0.2
		c0.06,0,0.15-0.04,0.27-0.12c0.11-0.08,0.09-0.12-0.07-0.12c-0.07,0-0.12,0.03-0.15,0.1s-0.08,0.07-0.15,0
		c0.07-0.2,0.09-0.4,0.07-0.61s-0.03-0.42-0.03-0.61c0.13-0.03,0.23,0.04,0.29,0.22s0.18,0.24,0.34,0.17
		c-0.03-0.1-0.12-0.21-0.27-0.34s-0.25-0.18-0.32-0.15c0.06-0.16,0.21-0.25,0.44-0.25c0-0.13-0.05-0.2-0.15-0.22
		s-0.07-0.09,0.1-0.22c0.13-0.13,0.11-0.18-0.07-0.15s-0.29,0.05-0.32,0.05c-0.03-0.1-0.05-0.21-0.05-0.34s0.03-0.25,0.1-0.34
		c0.07-0.07,0.1-0.11,0.1-0.12s-0.05-0.06-0.15-0.12c-0.07-0.03-0.08-0.1-0.05-0.2c0.03-0.1,0.05-0.18,0.05-0.25
		c0-0.36,0-0.7,0-1.01s-0.02-0.65-0.05-1.01c0-0.13,0.03-0.3,0.1-0.52c0.07-0.21,0.07-0.37,0-0.47c-0.07-0.16-0.06-0.29,0.02-0.37
		c0.08-0.08,0.16-0.19,0.22-0.32c-0.03,0-0.07-0.06-0.12-0.17s-0.01-0.12,0.12-0.02c0.23,0.17,0.41,0.13,0.54-0.1
		c0-0.07-0.05-0.07-0.15-0.02s-0.15,0.04-0.15-0.03c0.07-0.1,0.22-0.15,0.47-0.15s0.42-0.02,0.52-0.05c0.13-0.07,0.24-0.07,0.32,0
		s0.2,0.08,0.37,0.05h0.93c0.62-0.03,1.26-0.03,1.92,0c0.23,0,0.49-0.02,0.79-0.05c0.29-0.03,0.51,0.07,0.64,0.29
		c0.13-0.03,0.16-0.09,0.07-0.17c-0.08-0.08,0.02-0.12,0.32-0.12c0.23,0,0.45,0.01,0.66,0.02c0.21,0.02,0.42,0.02,0.61,0.02h2.31
		c0.07,0,0.18-0.01,0.34-0.02c0.16-0.02,0.28,0.01,0.34,0.07c0.1,0.16,0.16,0.2,0.2,0.1c0.03-0.1,0.08-0.16,0.15-0.2
		c0.1,0.07,0.2,0.07,0.32,0.02c0.11-0.05,0.24-0.06,0.37-0.02c0.03,0,0.12,0.07,0.27,0.2c0.15,0.13,0.22,0.17,0.22,0.1
		c0-0.03-0.03-0.08-0.1-0.15c-0.07-0.07-0.03-0.1,0.1-0.1c0.16,0.03,0.31,0.04,0.44,0.03c0.13-0.02,0.28-0.03,0.44-0.03
		s0.34,0.01,0.52,0.03c0.18,0.02,0.35,0.01,0.52-0.03c0.1-0.03,0.16-0.02,0.2,0.05c0,0.07,0.02,0.12,0.05,0.15
		c0,0.13,0.03,0.13,0.1,0c0.07-0.07,0.1-0.12,0.1-0.17s0.08-0.03,0.25,0.07s0.25,0.17,0.27,0.22s0.01,0.16-0.02,0.32
		c-0.03,0.1-0.03,0.18,0,0.25c0.1,0.07,0.15,0.11,0.15,0.12s-0.02,0.09-0.05,0.22c-0.03,0.16-0.02,0.34,0.02,0.54
		c0.05,0.2,0.04,0.38-0.02,0.54c0.1,0.13,0.12,0.28,0.07,0.44c-0.05,0.17-0.07,0.31-0.07,0.44c-0.03,0.1-0.05,0.25-0.05,0.47
		c0,0.21,0.03,0.35,0.1,0.42c0.06,0.1,0.07,0.22,0.02,0.37s-0.07,0.29-0.07,0.42c0.03,0.36-0.13,0.64-0.49,0.83
		c-0.29,0.16-0.6,0.21-0.91,0.12c-0.31-0.08-0.63-0.12-0.96-0.12c-0.13,0-0.27,0.03-0.42,0.1s-0.29,0.03-0.42-0.1
		c-0.13,0.07-0.26,0.08-0.39,0.05s-0.26-0.02-0.39,0.05c-0.36,0.07-0.74,0.07-1.13,0.02s-0.77-0.06-1.13-0.02h-1.18
		c-0.2-0.03-0.39-0.06-0.59-0.07s-0.38,0.01-0.54,0.07c-0.16,0.07-0.28,0.09-0.34,0.07s-0.13,0.07-0.2,0.27
		c-0.07,0.13-0.1,0.26-0.1,0.39s0,0.26,0,0.39c0,0.26,0.02,0.54,0.05,0.83c0.03,0.29,0,0.57-0.1,0.84c0,0.07,0.03,0.16,0.1,0.29
		c0.07,0.1,0.07,0.17,0.02,0.22s-0.09,0.12-0.12,0.22c0,0.07,0.03,0.13,0.1,0.2c0.07,0.1,0.07,0.19,0.02,0.27s-0.07,0.16-0.07,0.22
		c-0.03,0.2-0.03,0.39,0,0.57c0.03,0.18,0.05,0.35,0.05,0.52c0,0.2-0.02,0.29-0.05,0.27s-0.1,0.04-0.2,0.17
		c0.03,0.07,0.08,0.12,0.15,0.15c0.07,0.03,0.1,0.08,0.1,0.15c-0.07,0.36-0.08,0.71-0.05,1.06s0.03,0.7,0,1.06
		c0.16,0.33,0.41,0.48,0.74,0.47c0.33-0.02,0.64-0.04,0.93-0.07c0.16,0,0.31,0.02,0.44,0.05s0.28,0.02,0.44-0.05
		c0.16-0.03,0.32-0.06,0.47-0.07s0.3,0.01,0.47,0.07c0.13,0.07,0.21,0.13,0.25,0.2c0.03,0.07,0.1,0.13,0.2,0.2
		c0.07,0.07,0.11,0.08,0.15,0.05c0.03-0.03,0.03-0.08,0-0.15c-0.03-0.1-0.08-0.2-0.15-0.29c0.39,0.13,0.82,0.13,1.28,0
		c0.46-0.13,0.87-0.08,1.23,0.15c0.16,0.1,0.25,0.25,0.27,0.44c0.02,0.2,0.06,0.38,0.12,0.54c0.03,0.13,0.03,0.21,0,0.25
		c-0.03,0.03-0.07,0.1-0.1,0.2c0,0.1,0.02,0.21,0.05,0.32c0.03,0.12,0.05,0.22,0.05,0.32c0,0.13-0.02,0.21-0.05,0.22
		c-0.03,0.02-0.02,0.07,0.05,0.17c0.06,0.13,0.08,0.26,0.05,0.39s-0.07,0.25-0.1,0.34c-0.07,0.23-0.07,0.43-0.02,0.61
		s0.06,0.38,0.02,0.61c-0.03,0.26-0.07,0.47-0.1,0.61c-0.03,0.15-0.18,0.3-0.44,0.47c-0.13,0.07-0.21,0.07-0.25,0.02
		c-0.03-0.05-0.1-0.07-0.2-0.07c-0.1,0-0.21,0.02-0.32,0.05c-0.12,0.03-0.24,0.03-0.37,0c-0.2-0.03-0.38-0.02-0.54,0.02
		c-0.17,0.05-0.36,0.04-0.59-0.02c-0.23-0.03-0.47-0.02-0.71,0.02c-0.25,0.05-0.48,0.04-0.71-0.02c-0.23-0.1-0.47-0.12-0.71-0.07
		c-0.25,0.05-0.48,0.07-0.71,0.07c-0.16,0.03-0.34,0.04-0.54,0.02c-0.2-0.02-0.36,0.06-0.49,0.22c-0.07,0.26-0.09,0.53-0.07,0.81
		c0.02,0.28,0.02,0.56,0.02,0.86c0,0.26-0.01,0.51-0.02,0.74c-0.02,0.23-0.03,0.48-0.03,0.74c0,0.03,0,0.12,0,0.27s0,0.31,0,0.49
		c0,0.18,0,0.33,0,0.44c0,0.12-0.02,0.17-0.05,0.17c-0.07,0-0.11-0.02-0.12-0.05c-0.02-0.03-0.06-0.02-0.12,0.05
		c0,0.26,0.02,0.35,0.05,0.27c0.03-0.08,0.11-0.11,0.25-0.07c0,0.46,0,0.89,0,1.3s0.02,0.84,0.05,1.3c0,0.13-0.02,0.3-0.05,0.52
		c-0.03,0.21-0.05,0.43-0.05,0.64s0.03,0.41,0.1,0.59s0.2,0.29,0.39,0.32s0.39,0.05,0.59,0.05s0.39,0.02,0.59,0.05
		c0.2,0,0.37-0.01,0.52-0.02c0.15-0.02,0.32-0.02,0.52-0.02c0.36-0.07,0.72-0.07,1.08,0c0.13,0,0.2,0.02,0.22,0.05
		s0.09,0.02,0.22-0.05c0.1-0.03,0.19-0.03,0.27,0s0.19,0.05,0.32,0.05c0.39-0.03,0.79-0.04,1.18-0.02c0.39,0.02,0.79,0.01,1.18-0.02
		c0.43-0.03,0.84-0.05,1.23-0.05s0.77,0.13,1.13,0.39c-0.07,0.16-0.04,0.34,0.07,0.54C141.44,262.5,141.45,262.68,141.35,262.85z"/>
	<path class="st0" d="M161.25,258.18c0,0.13,0.02,0.25,0.05,0.37s0.05,0.24,0.05,0.37c-0.03,0.2-0.07,0.38-0.1,0.54
		s-0.02,0.33,0.05,0.49c0.07,0.23,0.05,0.44-0.05,0.64s-0.15,0.39-0.15,0.59c0,0.36-0.11,0.75-0.32,1.15
		c-0.21,0.41-0.4,0.78-0.57,1.11c-0.26,0.62-0.64,1.18-1.13,1.67s-1.02,0.92-1.57,1.28c-0.23,0.13-0.57,0.34-1.03,0.64
		c-0.46,0.29-0.82,0.41-1.08,0.34c-0.13-0.03-0.26-0.02-0.39,0.05c-0.13,0.07-0.26,0.11-0.39,0.15c-0.17,0.03-0.32,0.06-0.47,0.07
		s-0.3,0.02-0.47,0.02c-0.13,0.03-0.25,0.07-0.37,0.1s-0.25,0.03-0.42,0c-0.1,0-0.25-0.03-0.44-0.1c-0.1,0.07-0.28,0.1-0.54,0.1
		c-0.39-0.07-0.79-0.11-1.18-0.12c-0.39-0.02-0.77-0.07-1.13-0.17c-0.1-0.03-0.21-0.09-0.34-0.17c-0.13-0.08-0.23-0.11-0.29-0.07
		c-0.16,0.07-0.29,0.06-0.37-0.02s-0.19-0.16-0.32-0.22c-0.16-0.07-0.32-0.11-0.47-0.15c-0.15-0.03-0.29-0.1-0.42-0.2
		c-0.1-0.07-0.2-0.15-0.29-0.25c-0.1-0.1-0.21-0.18-0.34-0.25c-0.2-0.07-0.36-0.2-0.49-0.39c-0.1-0.13-0.21-0.24-0.34-0.32
		c-0.13-0.08-0.25-0.19-0.34-0.32c-0.39-0.43-0.75-0.95-1.08-1.57c-0.07-0.1-0.14-0.21-0.22-0.34s-0.14-0.26-0.17-0.39
		c-0.07-0.16-0.11-0.33-0.12-0.49c-0.02-0.16-0.09-0.31-0.22-0.44c-0.03-0.36-0.12-0.71-0.25-1.06s-0.13-0.7,0-1.06
		c-0.16-0.26-0.2-0.57-0.1-0.91c0.1-0.34,0.07-0.65-0.1-0.91c0.07-0.33,0.07-0.65,0.02-0.98c-0.05-0.33-0.04-0.64,0.02-0.93
		c0.07-0.26,0.09-0.49,0.07-0.69c-0.02-0.2,0.11-0.38,0.37-0.54c0.49-0.26,0.95-0.29,1.38-0.1c0.46-0.07,0.88-0.08,1.25-0.05
		c0.38,0.03,0.79,0.05,1.25,0.05c0.39,0,0.77,0,1.13,0s0.56,0.26,0.59,0.79c0.03,0.43,0.06,0.84,0.07,1.25
		c0.02,0.41,0.02,0.84,0.02,1.3c-0.07,1.05,0.13,1.98,0.59,2.8c0.16,0.39,0.43,0.69,0.81,0.88c0.38,0.2,0.78,0.31,1.2,0.34
		c0.52,0.03,0.96-0.03,1.3-0.2s0.7-0.43,1.06-0.79c0.26-0.26,0.39-0.57,0.39-0.93s0.03-0.7,0.1-1.03c0.03-0.2,0.03-0.4,0-0.61
		s-0.08-0.42-0.15-0.61c-0.07-0.26-0.14-0.51-0.22-0.74c-0.08-0.23-0.17-0.47-0.27-0.74c-0.07-0.16-0.16-0.34-0.27-0.52
		c-0.12-0.18-0.22-0.35-0.32-0.52c-0.07-0.13-0.16-0.25-0.29-0.37c-0.13-0.11-0.21-0.25-0.25-0.42c-0.13-0.1-0.24-0.21-0.32-0.34
		c-0.08-0.13-0.21-0.25-0.37-0.34c-0.13-0.1-0.21-0.21-0.25-0.34l-0.69-0.69c-0.16-0.16-0.34-0.33-0.52-0.49
		c-0.18-0.16-0.35-0.33-0.52-0.49c-0.2-0.16-0.38-0.32-0.56-0.47s-0.35-0.32-0.52-0.52c-0.33-0.39-0.67-0.72-1.03-0.98
		c-0.16-0.16-0.32-0.34-0.47-0.54s-0.3-0.38-0.47-0.54c-0.29-0.33-0.57-0.65-0.84-0.98c-0.26-0.33-0.51-0.67-0.74-1.03
		c-0.1-0.16-0.22-0.32-0.37-0.47s-0.25-0.32-0.32-0.52c-0.03-0.1-0.12-0.28-0.25-0.54c-0.16-0.2-0.28-0.41-0.34-0.64
		c-0.07-0.16-0.14-0.33-0.22-0.49s-0.16-0.33-0.22-0.49c-0.03-0.13-0.05-0.24-0.05-0.32s-0.03-0.17-0.1-0.27
		c-0.07-0.13-0.09-0.22-0.07-0.27c0.02-0.05,0.01-0.14-0.02-0.27c-0.03-0.07-0.07-0.14-0.1-0.22s-0.05-0.17-0.05-0.27
		c-0.03-0.07-0.03-0.15,0-0.25s0.05-0.18,0.05-0.25c-0.07-0.2-0.14-0.38-0.22-0.54c-0.08-0.16-0.09-0.34-0.02-0.54
		c0.06-0.16,0.09-0.35,0.07-0.57c-0.02-0.21-0.02-0.42-0.02-0.61c0.03-0.16,0.06-0.33,0.07-0.49c0.02-0.16,0.03-0.33,0.03-0.49
		c-0.03-0.2-0.02-0.4,0.05-0.61s0.13-0.42,0.2-0.61c0.07-0.26,0.1-0.47,0.1-0.64c0.2-0.26,0.31-0.47,0.34-0.64
		c0.03-0.16,0.07-0.27,0.12-0.32c0.05-0.05,0.11-0.14,0.17-0.27c0.03-0.13,0.11-0.29,0.25-0.49c0.13-0.16,0.23-0.31,0.29-0.44
		c0.07-0.13,0.18-0.28,0.34-0.44c0.36-0.29,0.7-0.61,1.03-0.96c0.33-0.34,0.7-0.6,1.13-0.76c0.2-0.07,0.39-0.14,0.59-0.22
		s0.39-0.16,0.59-0.22c0.13-0.07,0.29-0.12,0.49-0.17s0.36-0.11,0.49-0.17c0.07-0.07,0.18-0.1,0.34-0.1s0.29-0.02,0.39-0.05
		c0.2-0.03,0.4-0.05,0.61-0.05s0.42,0,0.61,0c1.67-0.1,3.21,0.18,4.62,0.83c0.16,0.07,0.29,0.16,0.37,0.27
		c0.08,0.12,0.19,0.21,0.32,0.27c0.13,0.03,0.28,0.1,0.44,0.2c0.16,0.1,0.28,0.18,0.34,0.25c0.13,0.2,0.25,0.33,0.34,0.39
		c0.1,0.07,0.17,0.13,0.22,0.2s0.11,0.13,0.17,0.2c0.07,0.07,0.12,0.12,0.17,0.17s0.09,0.12,0.12,0.22s0.07,0.16,0.12,0.17
		c0.05,0.02,0.11,0.07,0.17,0.17c0.23,0.29,0.41,0.61,0.54,0.93c0.13,0.33,0.28,0.66,0.44,0.98c0.07,0.17,0.12,0.35,0.17,0.57
		s0.11,0.4,0.17,0.56c0.07,0.26,0.09,0.52,0.07,0.79c-0.02,0.26-0.01,0.52,0.03,0.79c0,0.43,0.01,0.85,0.02,1.28
		c0.02,0.43,0.04,0.85,0.07,1.28c0.07,0.39,0.07,0.8,0,1.23s-0.38,0.66-0.93,0.69c-0.36,0.03-0.72,0.04-1.08,0.02
		c-0.36-0.02-0.72-0.04-1.08-0.07c-0.16-0.03-0.3-0.02-0.42,0.03c-0.11,0.05-0.24,0.07-0.37,0.07c-0.23-0.07-0.45-0.09-0.66-0.07
		s-0.43,0.01-0.66-0.03c-0.46-0.06-0.74-0.26-0.83-0.59c-0.1-0.33-0.12-0.67-0.05-1.03c0.03-0.2,0.05-0.38,0.05-0.56s0-0.37,0-0.57
		c0-0.1-0.02-0.19-0.05-0.27s-0.05-0.17-0.05-0.27c0-0.16,0.01-0.33,0.02-0.52c0.02-0.18,0.01-0.35-0.02-0.52
		c-0.03-0.23-0.09-0.44-0.17-0.64s-0.17-0.39-0.27-0.59c-0.23-0.36-0.52-0.62-0.88-0.79c-0.46-0.26-0.91-0.35-1.35-0.27
		s-0.86,0.27-1.25,0.56c-0.16,0.16-0.28,0.29-0.34,0.39c-0.07,0.1-0.15,0.25-0.25,0.44c-0.1,0.16-0.15,0.35-0.15,0.57s0,0.4,0,0.56
		c-0.07,0.49-0.04,0.97,0.07,1.45s0.3,0.93,0.56,1.35c0.16,0.33,0.34,0.65,0.54,0.96c0.2,0.31,0.42,0.61,0.69,0.91
		c0.1,0.13,0.21,0.23,0.34,0.29s0.25,0.18,0.34,0.34c0.16,0.23,0.33,0.41,0.49,0.54c0.16,0.13,0.33,0.28,0.49,0.44
		c0.33,0.36,0.65,0.71,0.96,1.03c0.31,0.33,0.65,0.66,1.01,0.98c0.16,0.17,0.34,0.34,0.54,0.52s0.38,0.35,0.54,0.52
		c0.16,0.16,0.34,0.34,0.52,0.52c0.18,0.18,0.35,0.37,0.52,0.57c0.16,0.16,0.29,0.33,0.37,0.49s0.2,0.33,0.37,0.49l0.49,0.49
		c0,0.16,0.07,0.31,0.2,0.44c0.26,0.29,0.49,0.63,0.69,1.01c0.2,0.38,0.38,0.76,0.54,1.15c0.1,0.23,0.2,0.45,0.29,0.66
		c0.1,0.21,0.18,0.43,0.25,0.66c0.07,0.2,0.11,0.38,0.15,0.56c0.03,0.18,0.08,0.37,0.15,0.57c0.07,0.16,0.1,0.36,0.1,0.59
		s0.03,0.44,0.1,0.64c0,0.1-0.02,0.19-0.05,0.27C161.26,257.99,161.25,258.08,161.25,258.18z"/>
	<path class="st0" d="M181.04,235.98c0.03,0.2,0.05,0.41,0.05,0.64s-0.05,0.44-0.15,0.64c-0.1,0.2-0.25,0.31-0.44,0.34
		c-0.2,0.03-0.41,0.05-0.64,0.05s-0.45-0.02-0.66-0.05s-0.39-0.03-0.52,0c-0.29,0.1-0.57,0.1-0.83,0c-0.1-0.07-0.2-0.07-0.29,0
		c-0.1,0.07-0.2,0.07-0.29,0c-0.26-0.13-0.58-0.16-0.96-0.07c-0.38,0.08-0.7,0.11-0.96,0.07c-0.33,0.26-0.44,0.59-0.34,0.98
		s0.11,0.77,0.05,1.13c-0.07,0.39-0.1,0.8-0.1,1.23s0,0.83,0,1.23c0,0.2,0.02,0.38,0.07,0.56s0.04,0.37-0.02,0.57
		c-0.07,0.23-0.09,0.45-0.07,0.66s0.04,0.45,0.07,0.71c0.03,0.23,0.06,0.45,0.07,0.66c0.02,0.21,0.01,0.45-0.02,0.71
		c0,0.13-0.03,0.29-0.1,0.49c0.07,0.13,0.09,0.25,0.07,0.37c-0.02,0.12-0.02,0.24-0.02,0.37c-0.03,0.23-0.03,0.44,0,0.64
		s0.05,0.39,0.05,0.59c0,0.23-0.02,0.44-0.05,0.64s-0.03,0.41,0,0.64c0,0.26,0.01,0.52,0.02,0.76c0.02,0.25-0.01,0.48-0.07,0.71
		c-0.07,0.23-0.07,0.47,0,0.71c0.07,0.25,0.1,0.48,0.1,0.71c0,0.95-0.01,1.88-0.02,2.8c-0.02,0.92-0.04,1.85-0.07,2.8
		c0,0.1,0.02,0.21,0.05,0.32c0.03,0.12,0.05,0.22,0.05,0.32s-0.02,0.19-0.05,0.27s-0.05,0.17-0.05,0.27
		c0.03,0.26,0.06,0.5,0.07,0.71c0.02,0.21,0.01,0.43-0.02,0.66s-0.03,0.45,0,0.66s0.03,0.43,0,0.66c-0.03,0.26-0.04,0.54-0.03,0.84
		c0.02,0.29,0.03,0.57,0.03,0.83c0.03,0.43,0.04,0.85,0.02,1.28c-0.02,0.43-0.04,0.85-0.07,1.28c-0.03,0.16-0.04,0.32-0.02,0.47
		c0.02,0.15-0.09,0.25-0.32,0.32c-0.23,0.07-0.43,0.12-0.61,0.17c-0.18,0.05-0.4,0.06-0.66,0.03c-0.46-0.07-0.88-0.07-1.28-0.03
		c-0.39,0.05-0.82,0.04-1.28-0.02c-0.16,0-0.36,0.02-0.59,0.05s-0.43,0.02-0.59-0.05c-0.07-0.03-0.15-0.04-0.25-0.02
		c-0.1,0.02-0.2,0.02-0.29,0.02c-0.2-0.16-0.38-0.38-0.54-0.64v-1.38c-0.03-0.1-0.05-0.2-0.05-0.29s-0.02-0.2-0.05-0.29
		c0.03-0.13,0.07-0.25,0.1-0.37c0.03-0.11,0.05-0.24,0.05-0.37c0-0.23-0.02-0.44-0.05-0.64s-0.05-0.41-0.05-0.64
		c0.03-0.26,0.06-0.53,0.07-0.81c0.02-0.28,0.01-0.55-0.03-0.81c-0.07-0.46-0.05-0.87,0.05-1.23c0.03-0.2,0.02-0.4-0.02-0.61
		c-0.05-0.21-0.06-0.42-0.03-0.61c0.1-1.11,0.08-2.16-0.05-3.14c-0.03-0.23-0.03-0.44,0-0.64s0.07-0.41,0.1-0.64
		s0.02-0.45-0.02-0.66c-0.05-0.21-0.07-0.45-0.07-0.71c0.03-0.88,0.03-1.77,0-2.65c-0.03-0.46-0.04-0.91-0.02-1.35
		s0.02-0.89,0.02-1.35c0-0.49,0.02-0.97,0.05-1.45s0.02-0.96-0.05-1.45c-0.03-0.16-0.04-0.34-0.02-0.52s0.02-0.35,0.02-0.52
		c0.03-0.39,0.03-0.79,0-1.18c-0.03-0.23-0.02-0.44,0.05-0.64s0.08-0.39,0.05-0.59c-0.03-0.26-0.06-0.52-0.07-0.79
		s-0.02-0.52-0.02-0.79c0-0.23,0.02-0.46,0.05-0.69s0.02-0.46-0.05-0.69c-0.07-0.26-0.2-0.42-0.39-0.47
		c-0.2-0.05-0.43-0.09-0.69-0.12c-0.23-0.03-0.45-0.03-0.66,0.02s-0.43,0.07-0.66,0.07c-0.26-0.03-0.53-0.06-0.81-0.07
		s-0.56-0.02-0.86-0.02c-0.16,0-0.35,0.01-0.57,0.02s-0.42,0.01-0.61-0.02c-0.2-0.03-0.37-0.1-0.52-0.2
		c-0.15-0.1-0.22-0.26-0.22-0.49c0-0.42-0.03-0.84-0.1-1.25s-0.05-0.83,0.05-1.25c0.03-0.03,0.07-0.09,0.12-0.17
		c0.05-0.08,0.04-0.14-0.03-0.17c-0.03-0.07-0.07-0.1-0.12-0.1c-0.05,0-0.06-0.03-0.02-0.1c0.06-0.16,0.09-0.33,0.07-0.49
		c-0.02-0.16-0.02-0.33-0.02-0.49s0-0.33,0-0.49s0.05-0.29,0.15-0.39c0.16-0.16,0.35-0.25,0.56-0.27c0.21-0.02,0.42-0.01,0.61,0.02
		c0.39,0.03,0.79,0.02,1.2-0.05s0.81-0.05,1.2,0.05c0.2,0.07,0.36,0.07,0.49,0c0.13-0.06,0.23-0.07,0.29-0.02
		c0.07,0.05,0.15,0.07,0.25,0.07c0.26,0.03,0.52,0.03,0.76,0c0.25-0.03,0.5-0.05,0.76-0.05c0.16-0.03,0.36-0.06,0.59-0.07
		c0.23-0.02,0.43,0.01,0.59,0.07c0.13,0.03,0.25,0.03,0.37,0c0.11-0.03,0.22-0.05,0.32-0.05c0.16,0,0.32,0.02,0.47,0.07
		s0.3,0.06,0.47,0.02c0.26-0.07,0.51-0.08,0.74-0.05c0.23,0.03,0.47,0.02,0.74-0.05c0.16-0.03,0.33-0.02,0.49,0.02
		c0.16,0.05,0.33,0.07,0.49,0.07s0.32-0.02,0.47-0.05s0.3-0.05,0.47-0.05c0.49,0.03,1.01,0.02,1.57-0.05
		c0.56-0.07,1.06-0.03,1.52,0.1c0.23,0.07,0.47,0.08,0.74,0.05c0.26-0.03,0.53-0.06,0.81-0.07c0.28-0.02,0.54-0.02,0.79,0
		s0.45,0.12,0.61,0.32c0.16,0.2,0.21,0.42,0.15,0.66c-0.07,0.25-0.08,0.48-0.05,0.71c0,0.16-0.02,0.37-0.05,0.61
		c-0.03,0.25,0,0.43,0.1,0.56c0.07,0.07,0.07,0.16,0.02,0.29c-0.05,0.13-0.07,0.25-0.07,0.34v0.79H181.04z"/>
</g>
<g>
	<path class="st0" d="M224.29,261.48c0.16,0.08,0.26,0.34,0.3,0.77c0.04,0.44,0.06,0.93,0.06,1.48c0,0.55-0.02,1.09-0.06,1.6
		c-0.04,0.52-0.1,0.89-0.18,1.13c-0.24,0.79-0.79,1.27-1.66,1.43c-0.24,0-0.47-0.02-0.71-0.06s-0.48-0.06-0.71-0.06
		c-0.4,0-0.71,0.04-0.95,0.12c-0.24,0.08-0.55,0.12-0.95,0.12c-1.11-0.08-2.18-0.12-3.21-0.12c-1.03,0-2.1-0.04-3.21-0.12
		c-0.71,0-1.23,0.04-1.54,0.12c-0.32,0.08-0.53,0.08-0.65,0s-0.34-0.12-0.65-0.12c-0.63-0.08-1.23-0.08-1.78,0s-1.15,0.08-1.78,0
		c-2.38-0.08-4.75-0.08-7.13,0c-1.11,0.08-2.28,0.14-3.5,0.18s-2.4,0.02-3.5-0.06c-0.87,0-1.8,0-2.79,0c-0.99,0-1.6-0.55-1.84-1.66
		c-0.16-0.47-0.18-0.95-0.06-1.43c0.12-0.47,0.1-0.95-0.06-1.43c-0.16-0.63-0.2-1.29-0.12-1.96c0.08-0.67,0.12-1.32,0.12-1.96
		c0.08-1.11,0.12-2.24,0.12-3.38c0-1.15,0-2.28,0-3.38c0-0.55,0-1.09,0-1.6c0-0.51-0.04-1.01-0.12-1.48c0-0.24,0-0.49,0-0.77
		s0.08-0.49,0.24-0.65c-0.32-0.71-0.4-1.43-0.24-2.14c0-0.48,0-0.93,0-1.37c0-0.43,0.04-0.85,0.12-1.25c0-0.55-0.02-1.09-0.06-1.6
		c-0.04-0.51-0.06-1.05-0.06-1.6c0.08-0.63,0.08-1.23,0-1.78s-0.08-1.15,0-1.78s0.14-1.27,0.18-1.9c0.04-0.63,0.06-1.27,0.06-1.9
		c-0.08-1.11-0.2-2.26-0.36-3.44c-0.16-1.19-0.12-2.34,0.12-3.45c0.16-0.47,0.18-0.95,0.06-1.42c-0.12-0.48-0.18-0.95-0.18-1.43
		c0.08-0.71,0.14-1.43,0.18-2.14s0.02-1.42-0.06-2.14c0-0.32-0.06-0.81-0.18-1.48s-0.02-1.09,0.3-1.25
		c-0.16-0.47-0.2-0.87-0.12-1.19c0.08-0.24,0.08-0.43,0-0.59s-0.12-0.36-0.12-0.59c0-1.19,0.04-2.38,0.12-3.56
		c0.08-1.19,0.08-2.38,0-3.56c0-0.47,0.04-0.97,0.12-1.48s0.08-1.05,0-1.6c0-0.47-0.04-0.95-0.12-1.43c-0.08-0.47-0.08-0.99,0-1.54
		c0.16-0.4,0.16-0.75,0-1.07c-0.16-0.31-0.16-0.67,0-1.07c0.16-0.31,0.2-0.55,0.12-0.71s-0.12-0.36-0.12-0.59
		c0-0.39,0.02-0.75,0.06-1.07c0.04-0.31,0.06-0.67,0.06-1.07c0-0.32-0.06-0.73-0.18-1.25c-0.12-0.51-0.1-0.89,0.06-1.13
		c0.16-0.4,0.2-0.87,0.12-1.43c-0.08-0.55-0.08-1.03,0-1.43c0.08-0.55,0.08-1.05,0-1.48s-0.12-0.93-0.12-1.48
		c-0.08-0.63-0.08-1.32,0-2.08c0.08-0.75,0.16-1.44,0.24-2.08c0.63-0.71,1.4-0.99,2.32-0.83c0.91,0.16,1.76,0.2,2.55,0.12
		c0.87,0,1.72-0.02,2.55-0.06s1.68-0.02,2.55,0.06c0.4,0.08,0.85,0.08,1.37,0c0.51-0.08,0.97-0.04,1.37,0.12
		c0.16,0.08,0.3,0.06,0.42-0.06s0.3-0.14,0.53-0.06c0.4,0,0.79,0.2,1.19,0.59c0.63,0.47,0.87,1.13,0.71,1.96
		c-0.16,0.83-0.2,1.6-0.12,2.32c0.08,1.11,0.08,2.16,0,3.15c-0.08,0.99-0.08,2.04,0,3.15c0,0.47,0.04,0.95,0.12,1.43
		c0.08,0.47,0.12,0.95,0.12,1.42c0,0.55-0.04,1.05-0.12,1.48c-0.08,0.44-0.12,0.93-0.12,1.48c0.08,0.4,0.16,0.83,0.24,1.31
		c0.08,0.47,0.04,0.91-0.12,1.31c-0.16,0.63-0.24,1.11-0.24,1.43s0.06,0.59,0.18,0.83s0.18,0.48,0.18,0.71
		c0,0.63-0.04,1.23-0.12,1.78s-0.12,1.15-0.12,1.78c0.08,0.32,0.12,0.61,0.12,0.89s0.04,0.57,0.12,0.89
		c-0.08,0.24-0.16,0.46-0.24,0.65c-0.08,0.2-0.08,0.42,0,0.65c-0.08,0.08-0.3,0.08-0.65,0c-0.36-0.08-0.3,0.08,0.18,0.48
		c0.4,0.4,0.57,0.77,0.53,1.13c-0.04,0.36-0.06,0.77-0.06,1.25s0.06,0.97,0.18,1.48c0.12,0.52,0.14,1.01,0.06,1.48
		c-0.08,0.63-0.18,1.27-0.3,1.9c-0.12,0.63-0.1,1.27,0.06,1.9c0.16,0.47,0.08,0.87-0.24,1.19c0.08,0.24,0.12,0.5,0.12,0.77
		c0,0.28,0.04,0.54,0.12,0.77c0.08,0.55,0.14,1.09,0.18,1.6c0.04,0.52,0.02,1.09-0.06,1.72c-0.08,0.47-0.1,0.95-0.06,1.43
		c0.04,0.47,0.06,0.99,0.06,1.54c-0.08,0.55-0.08,1.13,0,1.72s0.08,1.17,0,1.72c-0.16,0.87-0.24,1.8-0.24,2.79
		c0,0.99,0.08,1.92,0.24,2.79c0,0.63-0.02,1.21-0.06,1.72c-0.04,0.52-0.06,1.05-0.06,1.6c0,0.71,0.02,1.41,0.06,2.08
		s0.02,1.33-0.06,1.96c-0.16,1.03-0.16,2.02,0,2.97s0.2,1.9,0.12,2.85c0,1.03,0.4,1.62,1.19,1.78c0.24,0.08,0.67,0.12,1.31,0.12
		c0.4-0.08,0.63-0.12,0.71-0.12s0.32,0,0.71,0c0.48,0.16,0.97,0.2,1.48,0.12s1.01-0.12,1.49-0.12c0.47-0.08,0.93-0.06,1.37,0.06
		c0.43,0.12,0.85,0.14,1.25,0.06c0.63-0.08,1.19-0.1,1.66-0.06c0.47,0.04,1.03,0.06,1.66,0.06c0.24,0,0.46-0.02,0.65-0.06
		c0.2-0.04,0.42-0.06,0.65-0.06c0.4-0.08,0.69-0.06,0.89,0.06s0.46,0.18,0.77,0.18c1.03-0.24,2.06-0.36,3.09-0.36
		c0.16,0.08,0.34,0.16,0.54,0.24s0.38,0.16,0.53,0.24c0.32,0,0.49,0.06,0.53,0.18s0.18,0.26,0.42,0.42
		c0.08,0.63,0.14,1.23,0.18,1.78s0.06,1.11,0.06,1.66c0,0.24-0.1,0.83-0.3,1.78C224.15,260.89,224.13,261.4,224.29,261.48z"/>
	<path class="st0" d="M276.3,263.74c0.16,0.47,0.24,0.95,0.24,1.43c0,0.47,0,0.91,0,1.3c-0.08,0.48-0.26,0.81-0.53,1.01
		c-0.28,0.2-0.61,0.34-1.01,0.42c-0.4,0.16-0.79,0.16-1.19,0c-0.24-0.16-0.42-0.18-0.53-0.06c-0.12,0.12-0.34,0.14-0.65,0.06
		c-0.32,0-0.61-0.02-0.89-0.06c-0.28-0.04-0.54-0.06-0.77-0.06c-0.32,0-0.58,0.04-0.77,0.12c-0.2,0.08-0.46,0.12-0.77,0.12
		c-1.11-0.16-2.16-0.2-3.15-0.12c-0.99,0.08-2.04,0.08-3.15,0c-0.71-0.08-1.33-0.39-1.84-0.95c-0.52-0.55-0.69-1.19-0.54-1.9
		c0.08-0.4,0.04-0.81-0.12-1.25c-0.16-0.43-0.16-0.85,0-1.25c0.08-0.24,0.12-0.4,0.12-0.47s-0.12-0.2-0.36-0.36
		c-0.16-0.16-0.18-0.34-0.06-0.54s0.14-0.37,0.06-0.53c-0.08-0.24-0.18-0.47-0.3-0.71s-0.18-0.47-0.18-0.71
		c0-0.16,0.02-0.34,0.06-0.53c0.04-0.2,0.06-0.42,0.06-0.65c0-0.16-0.06-0.34-0.18-0.54s-0.22-0.41-0.3-0.65v-1.54
		c-0.08-0.48-0.18-0.95-0.3-1.43c-0.12-0.47-0.18-0.91-0.18-1.31c0.08-0.87-0.24-1.62-0.95-2.26c-1.11,0.16-2.22,0.22-3.33,0.18
		c-1.11-0.04-2.22-0.06-3.33-0.06c-0.48,0-1.03-0.04-1.66-0.12s-1.23-0.08-1.78,0s-1.03,0.28-1.42,0.59
		c-0.4,0.32-0.59,0.83-0.59,1.54c0,0.24,0.04,0.46,0.12,0.65c0.08,0.2,0.04,0.46-0.12,0.77c-0.16,0.32-0.26,0.63-0.3,0.95
		c-0.04,0.32-0.06,0.67-0.06,1.07c0,0.4-0.08,0.83-0.24,1.3c-0.16,0.4-0.24,0.75-0.24,1.07s-0.04,0.67-0.12,1.07
		c0,0.55-0.12,1.07-0.36,1.54c0.08,0.71,0.08,1.43,0,2.14c-0.08,0.47-0.16,0.97-0.24,1.48c-0.08,0.52-0.2,1.01-0.36,1.48
		c-0.32,1.11-0.89,1.7-1.72,1.78s-1.72,0.12-2.67,0.12c-1.27-0.08-2.51-0.1-3.74-0.06c-1.23,0.04-2.51,0.06-3.86,0.06
		c-0.71-0.08-1.29-0.2-1.72-0.36c-0.44-0.16-0.89-0.52-1.37-1.07c0.16-0.39,0.22-0.83,0.18-1.3c-0.04-0.48,0.06-0.91,0.3-1.31
		c0.24-0.48,0.34-1.01,0.3-1.6s0.06-1.13,0.3-1.6c0.16-0.4,0.22-0.83,0.18-1.31c-0.04-0.47,0.22-0.75,0.77-0.83
		c0-0.16-0.08-0.22-0.24-0.18s-0.24-0.06-0.24-0.3c0-0.87,0.12-1.74,0.36-2.61l0.36-2.14c0.08-0.24,0.12-0.59,0.12-1.07
		c0.32-0.63,0.47-1.15,0.47-1.54c0-0.71,0.08-1.48,0.24-2.32c0.16-0.83,0.32-1.64,0.47-2.43c0.08-0.47,0.18-0.95,0.3-1.43
		c0.12-0.47,0.22-0.95,0.3-1.43c0.08-0.39,0.1-0.75,0.06-1.07c-0.04-0.31,0.06-0.67,0.3-1.07c0.24-0.55,0.32-1.07,0.24-1.54
		c0-0.47,0.08-0.85,0.24-1.13s0.24-0.61,0.24-1.01c0-1.74,0.28-3.29,0.83-4.63c0-1.42,0.2-2.85,0.59-4.28
		c0.08-0.24,0.14-0.61,0.18-1.13c0.04-0.51,0.08-1.05,0.12-1.6s0.14-1.01,0.3-1.37s0.4-0.54,0.71-0.54
		c-0.24-0.32-0.34-0.69-0.3-1.13c0.04-0.43,0.14-0.81,0.3-1.13c0.16-0.16,0.28-0.54,0.36-1.13c0.08-0.59,0.08-1.05,0-1.37
		c-0.16-0.32-0.16-0.71,0-1.19s0.32-0.91,0.47-1.31c0.16-0.63,0.24-1.25,0.24-1.84s0.08-1.21,0.24-1.84
		c0.39-0.87,0.61-1.8,0.65-2.79c0.04-0.99,0.22-1.92,0.54-2.79c0.16-0.4,0.24-0.85,0.24-1.37s0.08-1.01,0.24-1.48
		c0.16-0.55,0.24-1.09,0.24-1.6s0.08-1.09,0.24-1.72c0.24-0.87,0.42-1.76,0.53-2.67c0.12-0.91,0.26-1.84,0.42-2.79
		c0.08-0.47,0.18-0.97,0.3-1.48c0.12-0.51,0.26-1.01,0.42-1.48c0.08-0.55,0.1-1.13,0.06-1.72c-0.04-0.59,0.14-1.09,0.53-1.48
		c-0.16-0.55-0.16-1.07,0-1.54c0.16-0.47,0.32-0.99,0.48-1.54c0.08-0.39,0.1-0.79,0.06-1.19c-0.04-0.4,0.02-0.79,0.18-1.19
		c0.16-0.4,0.3-0.73,0.42-1.01s0.34-0.54,0.65-0.77c0.55-0.4,1.03-0.55,1.43-0.48c0.4,0.08,0.91,0.16,1.54,0.24
		c0.63,0,1.23-0.02,1.78-0.06s1.11-0.06,1.66-0.06s1.17,0.04,1.84,0.12s1.21,0,1.6-0.24c0.32-0.16,0.67-0.18,1.07-0.06
		c0.4,0.12,0.79,0.18,1.19,0.18c0.47,0.08,0.97,0.1,1.48,0.06c0.51-0.04,1.01-0.06,1.48-0.06c1.11,0.08,1.82,0.42,2.14,1.01
		s0.55,1.37,0.71,2.32c0.16,0.55,0.32,1.07,0.48,1.54c0.16,0.48,0.2,0.99,0.12,1.54c-0.08,0.63,0,1.21,0.24,1.72
		c0.24,0.52,0.4,1.09,0.48,1.72c0.08,1.03,0.24,2.04,0.47,3.03c0.24,0.99,0.36,2.04,0.36,3.15c0.08,0.4,0.12,0.62,0.12,0.65
		s0.08,0.22,0.24,0.53c-0.08,0.4-0.04,0.91,0.12,1.54c0.16,0.47,0.26,1.01,0.3,1.6c0.04,0.59,0.22,1.09,0.53,1.48
		c-0.08,1.03,0.02,2.04,0.3,3.03s0.45,1.96,0.53,2.91c0,0.4,0.02,0.79,0.06,1.19c0.04,0.4,0.18,0.75,0.42,1.07
		c0.32,0.48,0.43,1.01,0.36,1.6c-0.08,0.59-0.04,1.17,0.12,1.72c0.24,0.87,0.43,1.8,0.59,2.79c0.16,0.99,0.4,1.96,0.71,2.91
		c-0.08,0.32-0.18,0.49-0.3,0.53s-0.1,0.22,0.06,0.54c0.32,0.4,0.51,0.83,0.59,1.31c0.08,0.4,0.1,0.77,0.06,1.13s0.06,0.77,0.3,1.25
		c-0.08,0.87,0,1.8,0.24,2.79c0.24,0.99,0.47,1.92,0.71,2.79c0.16,0.63,0.2,1.11,0.12,1.42c0.16,0.24,0.24,0.67,0.24,1.31
		c0.08,0.48,0.18,0.93,0.3,1.37s0.22,0.89,0.3,1.37c0.08,0.47,0.12,0.93,0.12,1.37s0.08,0.89,0.24,1.37
		c0.08,0.4,0.14,0.81,0.18,1.25c0.04,0.44,0.14,0.85,0.3,1.25c0.16,0.55,0.3,1.05,0.42,1.48c0.12,0.44,0.14,0.97,0.06,1.6
		c0,0.55,0.08,1.03,0.24,1.43s0.28,0.83,0.36,1.31c0.24,1.9,0.57,3.76,1.01,5.58c0.43,1.82,0.73,3.68,0.89,5.58
		C275.43,260.45,275.75,262.08,276.3,263.74z M259.91,171.58c0.16,0.4,0.3,0.97,0.42,1.72c0.12,0.75,0.06,1.33-0.18,1.72
		c-0.71,0.32-1.37,0.54-1.96,0.65s-1.29,0.1-2.08-0.06c-1.03-0.16-1.98-0.12-2.85,0.12c-0.32,0.16-0.59,0.12-0.83-0.12
		c-0.16-0.16-0.26-0.31-0.3-0.47c-0.04-0.16-0.18-0.2-0.42-0.12c-0.4,0.24-0.85,0.04-1.37-0.59c-0.52-0.63-0.85-1.15-1.01-1.54
		c-0.24-0.32-0.4-0.63-0.48-0.95c-0.16-0.31-0.28-0.45-0.36-0.42c-0.08,0.04-0.24-0.06-0.47-0.3c-0.16-0.16-0.3-0.37-0.42-0.65
		s-0.26-0.49-0.42-0.65c-0.24-0.24-0.34-0.46-0.3-0.65c0.04-0.2-0.06-0.38-0.3-0.53c-0.32-0.24-0.61-0.48-0.89-0.71
		c-0.28-0.24-0.5-0.52-0.65-0.83c-0.08-0.16-0.14-0.31-0.18-0.47s-0.1-0.32-0.18-0.47c-0.08-0.16-0.2-0.26-0.36-0.3
		c-0.16-0.04-0.32-0.14-0.48-0.3c-0.16-0.4-0.36-0.77-0.59-1.13c-0.24-0.36-0.47-0.73-0.71-1.13c-0.48-0.63-0.95-1.25-1.43-1.84
		c-0.47-0.59-0.91-1.21-1.31-1.84c-0.16-0.47-0.32-0.79-0.48-0.95c0.16-0.24,0.28-0.44,0.36-0.59c0.08-0.16,0.08-0.36,0-0.59
		c0.4-0.16,0.83-0.28,1.31-0.36c0.47-0.08,0.95-0.16,1.42-0.24c0,0.16-0.06,0.32-0.18,0.47c-0.12,0.16-0.1,0.28,0.06,0.36
		c0.16,0.16,0.3,0.18,0.42,0.06s0.1-0.26-0.06-0.42c-0.16-0.24,0.02-0.39,0.54-0.47c0.51-0.08,0.81,0.12,0.89,0.59
		c0.16-0.08,0.28-0.2,0.36-0.36s0.2-0.2,0.36-0.12c0.16,0.16,0.3,0.2,0.42,0.12s0.3-0.16,0.53-0.24c0.63-0.16,1.23-0.12,1.78,0.12
		c0.55,0.08,1.11,0.08,1.66,0c1.58-0.16,3.01,0,4.28,0.48c0.4,0.55,0.73,1.05,1.01,1.48c0.28,0.44,0.49,0.97,0.65,1.6
		c0.08,0.24,0.18,0.47,0.3,0.71c0.12,0.24,0.3,0.44,0.53,0.6c0,0.4,0.02,0.69,0.06,0.89s0.14,0.49,0.3,0.89l1.78,3.92
		c0.24,0.71,0.49,1.39,0.77,2.02C259.18,170.31,259.52,170.95,259.91,171.58z M249.7,236.66c0.87-0.08,1.76-0.08,2.67,0
		s1.8,0.04,2.67-0.12c0.48-0.08,0.85-0.18,1.13-0.3c0.28-0.12,0.38-0.46,0.3-1.01c-0.08-0.47-0.12-0.93-0.12-1.37
		c0-0.43-0.08-0.89-0.24-1.37c0-0.08-0.04-0.36-0.12-0.83c-0.08-0.47-0.14-0.99-0.18-1.54c-0.04-0.55-0.06-1.03-0.06-1.43
		s0.04-0.59,0.12-0.59c0-0.16-0.1-0.22-0.3-0.18c-0.2,0.04-0.26-0.06-0.18-0.3c0-0.48-0.04-0.93-0.12-1.37
		c-0.08-0.43-0.16-0.89-0.24-1.37c-0.16-0.39-0.22-0.83-0.18-1.31c0.04-0.47-0.06-0.91-0.3-1.31c-0.16-0.31-0.22-0.67-0.18-1.07
		c0.04-0.39-0.02-0.79-0.18-1.19c-0.16-0.71-0.22-1.48-0.18-2.32c0.04-0.83-0.1-1.56-0.42-2.2c-0.08-0.16-0.14-0.43-0.18-0.83
		c-0.04-0.4-0.08-0.79-0.12-1.19c-0.04-0.4-0.12-0.75-0.24-1.07c-0.12-0.31-0.3-0.47-0.53-0.47c-0.16,0.4-0.26,0.77-0.3,1.13
		c-0.04,0.36-0.14,0.73-0.3,1.13c-0.08,0.16-0.14,0.3-0.18,0.42s-0.1,0.26-0.18,0.42c0,0.32,0.04,0.52,0.12,0.59
		c0.08,0.08,0.08,0.32,0,0.71c-0.24,1.03-0.42,2.06-0.53,3.09c-0.12,1.03-0.26,2.06-0.42,3.09c-0.16,0.79-0.28,1.56-0.36,2.32
		c-0.08,0.75-0.2,1.53-0.36,2.31c-0.08,0.48-0.18,0.93-0.3,1.37c-0.12,0.44-0.22,0.89-0.3,1.37c-0.08,0.55-0.14,1.09-0.18,1.6
		c-0.04,0.52-0.06,1.05-0.06,1.6c-0.16,0.87-0.32,1.58-0.47,2.14c-0.16,0.4-0.1,0.7,0.18,0.89
		C249.21,236.32,249.46,236.5,249.7,236.66z"/>
	<path class="st1" d="M299.82,187.25c0.16,0.63,0.22,1.23,0.18,1.78c-0.04,0.56-0.1,1.15-0.18,1.78c-0.08,0.55-0.08,1.05,0,1.48
		c0.08,0.44,0.04,0.93-0.12,1.48c0,0.55-0.02,1.09-0.06,1.6c-0.04,0.52-0.06,1.05-0.06,1.6c-0.08,0.87-0.1,1.76-0.06,2.67
		s-0.06,1.8-0.3,2.67c-0.08,0.24-0.1,0.55-0.06,0.95s0.06,0.79,0.06,1.19c0,0.16-0.02,0.36-0.06,0.59
		c-0.04,0.24,0.02,0.48,0.18,0.71c-0.24,0.24-0.36,0.55-0.36,0.95c0,0.87-0.04,1.68-0.12,2.43s-0.12,1.56-0.12,2.44
		c0,0.4,0.02,0.81,0.06,1.25s-0.06,0.77-0.3,1.01c0.24,0.4,0.34,0.83,0.3,1.31c-0.04,0.47-0.1,0.91-0.18,1.31
		c-0.16,0.4-0.16,0.79,0,1.19c0,0.24-0.04,0.4-0.12,0.47c-0.08,0.08-0.12,0.28-0.12,0.59c0.08,0.63,0.06,1.23-0.06,1.78
		s-0.14,1.15-0.06,1.78c0,0.32,0.04,0.55,0.12,0.71s0.04,0.4-0.12,0.71c-0.08,0.24-0.12,0.5-0.12,0.77c0,0.28,0,0.54,0,0.77
		c0,0.56-0.04,1.09-0.12,1.6c-0.08,0.52-0.08,1.01,0,1.48c0.24,1.03,0.22,2.06-0.06,3.09s-0.34,2.06-0.18,3.09
		c0.08,0.48,0.04,0.95-0.12,1.43c-0.16,0.47-0.24,0.95-0.24,1.43c0,0.63,0.02,1.21,0.06,1.72c0.04,0.52,0.02,1.05-0.06,1.6
		c-0.16,0.63-0.3,1.13-0.42,1.48c-0.12,0.36-0.5,0.62-1.13,0.77c-0.56,0.16-1.09,0.24-1.6,0.24c-0.52,0-1.05,0-1.6,0
		c-0.87-0.08-1.86-0.12-2.97-0.12c-1.11,0-1.82-0.47-2.14-1.42c-0.16-0.63-0.24-1.21-0.24-1.72s0-1.09,0-1.72s-0.04-1.27-0.12-1.9
		c-0.08-0.63-0.16-1.26-0.24-1.9c-0.08-1.43-0.1-2.87-0.06-4.34c0.04-1.46-0.02-2.91-0.18-4.33c-0.08-0.55-0.1-1.11-0.06-1.66
		s0.02-1.11-0.06-1.66c-0.08-0.39-0.1-0.85-0.06-1.37c0.04-0.51-0.02-0.97-0.18-1.37s-0.22-0.89-0.18-1.49
		c0.04-0.59,0.02-1.13-0.06-1.6c0-0.24,0-0.49,0-0.77s0.08-0.57,0.24-0.89c0.16-0.31,0.16-0.51,0-0.59s-0.28-0.28-0.36-0.59
		c-0.16-0.55-0.08-0.91,0.24-1.07c-0.16-0.39-0.26-0.73-0.3-1.01c-0.04-0.28-0.06-0.61-0.06-1.01c0-0.71,0.02-1.38,0.06-2.02
		c0.04-0.63-0.06-1.27-0.3-1.9c-0.16-0.55-0.16-1.13,0-1.72s0.16-1.17,0-1.72c-0.08-0.39-0.12-0.71-0.12-0.95c0-0.24,0-0.55,0-0.95
		c0-0.39,0-0.69,0-0.89s-0.08-0.49-0.24-0.89c-0.24-0.55-0.28-1.11-0.12-1.66s0.24-1.11,0.24-1.66c0-0.32-0.08-0.63-0.24-0.95
		c-0.16-0.31-0.12-0.59,0.12-0.83c0-0.32-0.1-0.55-0.3-0.71c-0.2-0.16-0.22-0.36-0.06-0.59c0.16-0.16,0.22-0.34,0.18-0.54
		s-0.1-0.42-0.18-0.65c-0.08-0.4-0.06-0.71,0.06-0.95c0.12-0.24,0.14-0.55,0.06-0.95c-0.16-0.55-0.28-1.15-0.36-1.78
		s-0.08-1.23,0-1.78s0.06-1.11-0.06-1.66s-0.1-1.11,0.06-1.66c0.16-0.63,0.57-1.03,1.25-1.19c0.67-0.16,1.29-0.28,1.84-0.36
		c0.4,0.08,0.79,0.1,1.19,0.06c0.4-0.04,0.79-0.06,1.19-0.06c0.32,0,0.71,0.08,1.19,0.24c0.71-0.16,1.27-0.2,1.66-0.12
		c0.4,0.08,0.61,0.12,0.65,0.12s0.22-0.08,0.53-0.24c0.24,0.08,0.59,0.12,1.07,0.12c0.39,0.08,0.83,0.08,1.31,0
		c0.24-0.16,0.4-0.2,0.48-0.12c0.08,0.08,0.24,0.2,0.47,0.36c0.32-0.16,0.73-0.2,1.25-0.12c0.51,0.08,0.81,0.32,0.89,0.71
		c0,0.32,0.16,0.47,0.48,0.47v1.43c0,0.47-0.02,0.95-0.06,1.42C300.07,186.42,299.97,186.86,299.82,187.25z M299.58,256.49
		c-0.16,0.63-0.24,1.03-0.24,1.19c0,0.79,0.02,1.56,0.06,2.31s0.06,1.53,0.06,2.32c0,0.47-0.06,0.97-0.18,1.48
		c-0.12,0.52-0.14,1.01-0.06,1.48c0.16,0.55,0.14,1.13-0.06,1.72s-0.69,0.81-1.48,0.65c-0.16-0.08-0.18-0.2-0.06-0.36
		c0.12-0.16,0.1-0.31-0.06-0.47c-0.16,0-0.24,0.12-0.24,0.36s-0.04,0.44-0.12,0.59c-0.4,0-0.77,0.02-1.13,0.06
		c-0.36,0.04-0.73,0.06-1.13,0.06h-2.38c-0.4,0-0.73-0.06-1.01-0.18s-0.61-0.14-1.01-0.06c-0.32,0.08-0.77,0.14-1.37,0.18
		c-0.59,0.04-1.19,0.02-1.78-0.06s-1.09-0.24-1.48-0.47c-0.4-0.24-0.52-0.63-0.36-1.19c0.16-0.55,0.2-1.15,0.12-1.78
		c-0.08-0.63-0.16-1.19-0.24-1.66c-0.08-0.32-0.08-0.57,0-0.77c0.08-0.2,0.16-0.45,0.24-0.77c0-0.08-0.02-0.43-0.06-1.07
		c-0.04-0.63-0.02-0.95,0.06-0.95c-0.16-0.08-0.22-0.51-0.18-1.31c0.04-0.79,0.06-1.34,0.06-1.66c-0.08-0.63-0.14-1.27-0.18-1.9
		c-0.04-0.63,0.14-1.23,0.53-1.78c0.32-0.55,0.91-0.83,1.78-0.83s1.62,0,2.26,0c0.32,0,0.59,0.04,0.83,0.12s0.51,0.12,0.83,0.12
		c0.39-0.08,0.77-0.14,1.13-0.18c0.36-0.04,0.73-0.06,1.13-0.06c0.63,0,1.27,0.02,1.9,0.06s1.31,0.06,2.02,0.06
		c0.79,0.08,1.21,0.34,1.25,0.77c0.04,0.44,0.14,0.93,0.3,1.48c0.08,0.32,0.12,0.63,0.12,0.95c0,0.32-0.08,0.59-0.24,0.83
		c0.08,0.16,0.12,0.28,0.12,0.36C299.34,256.22,299.42,256.34,299.58,256.49z"/>
</g>
</svg>
